
        <svg xmlns="http://www.w3.org/2000/svg" xmlns:xlink="http://www.w3.org/1999/xlink" version="1.1" width="3198.9205347393604" 
        height="1169.3102445267284" viewBox="0 0 3198.9205347393604 1169.3102445267284">
			
			<g transform="scale(9.94602673696801) translate(10, 10)">
				<defs id="SvgjsDefs1472"></defs><g id="SvgjsG1473" featureKey="MI9fam-0" transform="matrix(1.48079026649215,0,0,1.48079026649215,-33.22152883792406,-28.57629105985697)" fill="#ffb26b"><g xmlns="http://www.w3.org/2000/svg"><g><path d="M62.764,44.531c-1.158,0-2.1-0.939-2.1-2.1V21.398c0-1.16,0.941-2.1,2.1-2.1c1.16,0,2.1,0.939,2.1,2.1v21.033    C64.863,43.592,63.924,44.531,62.764,44.531z"></path><path d="M67.85,85.175c-6.273,0-8.354-4.175-8.574-6.383c-0.008-0.07-0.012-0.142-0.012-0.211V56.892    c-1.271-1.115-3.859-3.521-5.975-6.351c-0.693-0.93-0.504-2.245,0.424-2.939c0.932-0.692,2.246-0.503,2.939,0.425    c2.545,3.403,6.004,6.24,6.037,6.269c0.49,0.398,0.775,0.997,0.775,1.628v22.511c0.1,0.526,0.727,2.541,4.385,2.541    c3.75,0,4.311-2.101,4.387-2.531V55.923c0-0.631,0.283-1.229,0.773-1.629c3.316-2.704,8.578-8.317,8.578-11.862V21.398    c0-1.16,0.941-2.1,2.102-2.1c1.158,0,2.1,0.939,2.1,2.1v21.033c0,5.816-6.881,12.318-9.354,14.466v21.684    c0,0.069-0.004,0.141-0.01,0.211C76.203,81,74.123,85.175,67.85,85.175z"></path><path d="M72.936,44.531c-1.158,0-2.1-0.939-2.1-2.1V21.398c0-1.16,0.941-2.1,2.1-2.1c1.16,0,2.1,0.939,2.1,2.1v21.033    C75.035,43.592,74.096,44.531,72.936,44.531z"></path></g><path d="M47.564,57.901c4.381-1.559,10.749-8.36,10.749-15.47c0-5.554-2.719-20.76-2.832-21.404   c-0.182-1.001-1.051-1.729-2.068-1.729H27.334c-1.017,0-1.887,0.728-2.067,1.729c-0.114,0.645-2.832,15.851-2.832,21.404   c0,6.802,6.198,13.569,10.642,15.429c1.528,0.639,3.545,0.891,5.197,0.985v17.822c-4.648,0.812-6.281,4.268-6.476,6.207   c-0.06,0.591,0.134,1.179,0.532,1.619c0.397,0.44,0.964,0.691,1.557,0.691H46.86c0.009,0.002,0.021,0.002,0.027,0   c1.16,0,2.1-0.94,2.1-2.1c0-0.229-0.035-0.45-0.104-0.656c-0.382-1.983-2.099-5.01-6.41-5.762V58.814   C44.481,58.671,46.293,58.353,47.564,57.901z M34.699,53.985c-3.247-1.358-8.064-6.808-8.064-11.554   c0-4.14,1.749-14.752,2.466-18.934h22.546c0.717,4.182,2.467,14.793,2.467,18.934c0,4.954-4.829,10.399-7.958,11.513   c-1.292,0.459-3.673,0.756-6.066,0.756C37.784,54.7,35.769,54.434,34.699,53.985z"></path><g><path d="M40.203,51.819L40.203,51.819c-1.315,0-3.168-0.118-4.531-0.688c-2.82-1.181-6.901-5.431-6.901-10.032    c0-3.665,1.787-7.707,1.863-7.877c0.338-0.757,1.089-1.243,1.917-1.243h15.647c0.829,0,1.581,0.487,1.918,1.244    c0.075,0.17,1.861,4.211,1.861,7.876c0,4.337-3.7,8.895-7.006,10.072C43.324,51.757,41.088,51.819,40.203,51.819z"></path></g></g></g><g id="SvgjsG1474" featureKey="nameFeature-0" transform="matrix(1.2845951539792786,0,0,1.2845951539792786,111.94464772300601,23.523655983325227)" fill="#ffffff"><path d="M1.6 20 l0 -13.86 l9.28 0 l0 2.62 l-6.16 0 l0 2.9 l5.48 0 l0 2.62 l-5.48 0 l0 5.72 l-3.12 0 z M15.7 13.059999999999999 q0 1.02 0.25 1.84 t0.72 1.41 t1.15 0.91 t1.56 0.32 q0.86 0 1.55 -0.32 t1.16 -0.91 t0.72 -1.41 t0.25 -1.84 t-0.25 -1.85 t-0.72 -1.42 t-1.16 -0.91 t-1.55 -0.32 q-0.88 0 -1.56 0.33 t-1.15 0.92 t-0.72 1.42 t-0.25 1.83 z M26.28 13.059999999999999 q0 1.78 -0.53 3.13 t-1.45 2.26 t-2.19 1.37 t-2.73 0.46 q-1.42 0 -2.68 -0.46 t-2.2 -1.37 t-1.48 -2.26 t-0.54 -3.13 t0.56 -3.13 t1.51 -2.27 t2.2 -1.38 t2.63 -0.46 q1.42 0 2.68 0.46 t2.2 1.38 t1.48 2.27 t0.54 3.13 z M31.5 13.059999999999999 q0 1.02 0.25 1.84 t0.72 1.41 t1.15 0.91 t1.56 0.32 q0.86 0 1.55 -0.32 t1.16 -0.91 t0.72 -1.41 t0.25 -1.84 t-0.25 -1.85 t-0.72 -1.42 t-1.16 -0.91 t-1.55 -0.32 q-0.88 0 -1.56 0.33 t-1.15 0.92 t-0.72 1.42 t-0.25 1.83 z M42.08 13.059999999999999 q0 1.78 -0.53 3.13 t-1.45 2.26 t-2.19 1.37 t-2.73 0.46 q-1.42 0 -2.68 -0.46 t-2.2 -1.37 t-1.48 -2.26 t-0.54 -3.13 t0.56 -3.13 t1.51 -2.27 t2.2 -1.38 t2.63 -0.46 q1.42 0 2.68 0.46 t2.2 1.38 t1.48 2.27 t0.54 3.13 z M47.8 17.46 q0.22 0.02 0.51 0.03 t0.69 0.01 q2.34 0 3.47 -1.18 t1.13 -3.26 q0 -2.18 -1.08 -3.3 t-3.42 -1.12 q-0.32 0 -0.66 0.01 t-0.64 0.05 l0 8.76 z M56.82 13.059999999999999 q0 1.8 -0.56 3.14 t-1.59 2.22 t-2.51 1.32 t-3.32 0.44 q-0.84 0 -1.96 -0.07 t-2.2 -0.29 l0 -13.5 q1.08 -0.2 2.25 -0.27 t2.01 -0.07 q1.78 0 3.23 0.4 t2.49 1.26 t1.6 2.2 t0.56 3.22 z M67.34 17.46 q0.22 0.02 0.51 0.03 t0.69 0.01 q2.34 0 3.47 -1.18 t1.13 -3.26 q0 -2.18 -1.08 -3.3 t-3.42 -1.12 q-0.32 0 -0.66 0.01 t-0.64 0.05 l0 8.76 z M76.36 13.059999999999999 q0 1.8 -0.56 3.14 t-1.59 2.22 t-2.51 1.32 t-3.32 0.44 q-0.84 0 -1.96 -0.07 t-2.2 -0.29 l0 -13.5 q1.08 -0.2 2.25 -0.27 t2.01 -0.07 q1.78 0 3.23 0.4 t2.49 1.26 t1.6 2.2 t0.56 3.22 z M78.96 20 l0 -13.86 l9.36 0 l0 2.62 l-6.24 0 l0 2.72 l5.54 0 l0 2.56 l-5.54 0 l0 3.34 l6.7 0 l0 2.62 l-9.82 0 z M100.34 17.32 l0 2.68 l-9.26 0 l0 -13.86 l3.12 0 l0 11.18 l6.14 0 z M102.34 6.140000000000001 l3.12 0 l0 13.86 l-3.12 0 l0 -13.86 z M115.42 8.54 q-2.18 0 -3.15 1.21 t-0.97 3.31 q0 1.02 0.24 1.85 t0.72 1.43 t1.2 0.93 t1.68 0.33 q0.52 0 0.89 -0.02 t0.65 -0.08 l0 -4.82 l3.12 0 l0 6.86 q-0.56 0.22 -1.8 0.47 t-3.06 0.25 q-1.56 0 -2.83 -0.48 t-2.17 -1.4 t-1.39 -2.26 t-0.49 -3.06 q0 -1.74 0.54 -3.08 t1.48 -2.27 t2.21 -1.41 t2.71 -0.48 q0.98 0 1.77 0.13 t1.36 0.3 t0.94 0.35 t0.53 0.28 l-0.9 2.5 q-0.64 -0.34 -1.47 -0.59 t-1.81 -0.25 z M131.06 6.140000000000001 l3.12 0 l0 13.86 l-3.12 0 l0 -5.88 l-5.24 0 l0 5.88 l-3.12 0 l0 -13.86 l3.12 0 l0 5.3 l5.24 0 l0 -5.3 z M147.66 6.140000000000001 l0 2.66 l-4.18 0 l0 11.2 l-3.12 0 l0 -11.2 l-4.18 0 l0 -2.66 l11.48 0 z"></path></g><g id="SvgjsG1475" featureKey="sloganFeature-0" transform="matrix(0.4510016958748091,0,0,0.4510016958748091,113.60311867107148,57.62773119152678)" fill="#ffffff"><path d="M13.48 9.96 l-1.88 0 c-0.54 -2.52 -2.64 -2.98 -4.02 -2.98 c-2.6 0 -4.7 1.92 -4.7 5.7 c0 3.38 1.2 5.98 4.76 5.98 c1.26 0 3.44 -0.6 4.1 -3.94 l1.88 0 c-0.8 5.42 -5.2 5.66 -6.28 5.66 c-3.26 0 -6.46 -2.12 -6.46 -7.64 c0 -4.42 2.52 -7.48 6.7 -7.48 c3.7 0 5.62 2.3 5.9 4.7 z M30.552 12.82 c0 -3.38 -1.88 -5.84 -5 -5.84 s-5 2.46 -5 5.84 s1.88 5.84 5 5.84 s5 -2.46 5 -5.84 z M32.552 12.82 c0 3.1 -1.64 7.56 -7 7.56 s-7 -4.46 -7 -7.56 s1.64 -7.56 7 -7.56 s7 4.46 7 7.56 z M51.884 20 l-1.88 0 l0 -8.48 c0 -0.42 0.04 -2.24 0.04 -3.58 l-0.04 0 l-4.04 12.06 l-1.92 0 l-4.04 -12.04 l-0.04 0 c0 1.32 0.04 3.14 0.04 3.56 l0 8.48 l-1.88 0 l0 -14.36 l2.78 0 l4.1 12.14 l0.04 0 l4.08 -12.14 l2.76 0 l0 14.36 z M68.976 18.28 l0 1.72 l-10.6 0 l0 -14.36 l10.46 0 l0 1.72 l-8.52 0 l0 4.4 l7.86 0 l0 1.72 l-7.86 0 l0 4.8 l8.66 0 z M95 12.82 c0 -3.38 -1.88 -5.84 -5 -5.84 s-5 2.46 -5 5.84 s1.88 5.84 5 5.84 s5 -2.46 5 -5.84 z M97 12.82 c0 3.1 -1.64 7.56 -7 7.56 s-7 -4.46 -7 -7.56 s1.64 -7.56 7 -7.56 s7 4.46 7 7.56 z M112.15199999999999 17.240000000000002 l0 -11.6 l1.88 0 l0 14.36 l-2.18 0 l-7.3 -11.6 l-0.04 0 l0 11.6 l-1.88 0 l0 -14.36 l2.3 0 l7.18 11.6 l0.04 0 z M132.36399999999998 9.96 l-1.88 0 c-0.54 -2.52 -2.64 -2.98 -4.02 -2.98 c-2.6 0 -4.7 1.92 -4.7 5.7 c0 3.38 1.2 5.98 4.76 5.98 c1.26 0 3.44 -0.6 4.1 -3.94 l1.88 0 c-0.8 5.42 -5.2 5.66 -6.28 5.66 c-3.26 0 -6.46 -2.12 -6.46 -7.64 c0 -4.42 2.52 -7.48 6.7 -7.48 c3.7 0 5.62 2.3 5.9 4.7 z M148.97599999999997 18.28 l0 1.72 l-10.6 0 l0 -14.36 l10.46 0 l0 1.72 l-8.52 0 l0 4.4 l7.86 0 l0 1.72 l-7.86 0 l0 4.8 l8.66 0 z M170.55999999999997 17.18 l-3.24 -3.96 c-1.54 0.98 -2.46 1.64 -2.46 3.18 c0 1.8 1.78 2.38 2.58 2.38 c1.28 0 2.36 -0.56 3.12 -1.6 z M167.93999999999997 11.22 c0.76 -0.52 1.8 -1.26 1.8 -2.48 c0 -1.28 -0.96 -1.58 -1.54 -1.58 c-1.48 0 -1.68 1.08 -1.68 1.56 c0 0.94 0.88 1.96 1.42 2.5 z M172.55999999999997 16.9 l2.56 3.1 l-2.28 0 l-1.34 -1.64 c-0.98 1.12 -2.08 1.94 -4.18 1.94 c-3.58 0 -4.22 -2.66 -4.22 -3.76 c0 -1.96 0.58 -3.02 3.24 -4.52 c-1.04 -1.28 -1.52 -1.94 -1.52 -3.18 c0 -1.66 1.2 -3.2 3.4 -3.2 c2.26 0 3.22 1.52 3.22 2.96 c0 2.02 -1.52 3.04 -2.58 3.76 l2.62 3.12 c0.32 -0.88 0.4 -1.18 0.58 -2.24 l1.66 0 c-0.08 0.98 -0.42 2.3 -1.16 3.66 z M201.26399999999995 9.96 l-1.88 0 c-0.54 -2.52 -2.64 -2.98 -4.02 -2.98 c-2.6 0 -4.7 1.92 -4.7 5.7 c0 3.38 1.2 5.98 4.76 5.98 c1.26 0 3.44 -0.6 4.1 -3.94 l1.88 0 c-0.8 5.42 -5.2 5.66 -6.28 5.66 c-3.26 0 -6.46 -2.12 -6.46 -7.64 c0 -4.42 2.52 -7.48 6.7 -7.48 c3.7 0 5.62 2.3 5.9 4.7 z M218.33599999999996 12.82 c0 -3.38 -1.88 -5.84 -5 -5.84 s-5 2.46 -5 5.84 s1.88 5.84 5 5.84 s5 -2.46 5 -5.84 z M220.33599999999996 12.82 c0 3.1 -1.64 7.56 -7 7.56 s-7 -4.46 -7 -7.56 s1.64 -7.56 7 -7.56 s7 4.46 7 7.56 z M239.66799999999995 20 l-1.88 0 l0 -8.48 c0 -0.42 0.04 -2.24 0.04 -3.58 l-0.04 0 l-4.04 12.06 l-1.92 0 l-4.04 -12.04 l-0.04 0 c0 1.32 0.04 3.14 0.04 3.56 l0 8.48 l-1.88 0 l0 -14.36 l2.78 0 l4.1 12.14 l0.04 0 l4.08 -12.14 l2.76 0 l0 14.36 z M256.75999999999993 18.28 l0 1.72 l-10.6 0 l0 -14.36 l10.46 0 l0 1.72 l-8.52 0 l0 4.4 l7.86 0 l0 1.72 l-7.86 0 l0 4.8 l8.66 0 z M282.32399999999996 18.28 l0 1.72 l-10.6 0 l0 -14.36 l10.46 0 l0 1.72 l-8.52 0 l0 4.4 l7.86 0 l0 1.72 l-7.86 0 l0 4.8 l8.66 0 z M293.376 17.88 l4.06 -12.24 l2.18 0 l-5.24 14.36 l-2.06 0 l-5.24 -14.36 l2.16 0 l4.1 12.24 l0.04 0 z M315.668 18.28 l0 1.72 l-10.6 0 l0 -14.36 l10.46 0 l0 1.72 l-8.52 0 l0 4.4 l7.86 0 l0 1.72 l-7.86 0 l0 4.8 l8.66 0 z M323.72 13.84 l0 6.16 l-1.94 0 l0 -14.36 l6.64 0 c2.36 0 4.72 0.82 4.72 3.86 c0 2.12 -1.08 2.9 -2 3.44 c0.82 0.34 1.64 0.7 1.72 2.7 l0.12 2.6 c0.02 0.8 0.12 1.1 0.72 1.44 l0 0.32 l-2.38 0 c-0.28 -0.88 -0.34 -3.06 -0.34 -3.6 c0 -1.18 -0.24 -2.56 -2.56 -2.56 l-4.7 0 z M323.72 7.300000000000001 l0 4.88 l4.5 0 c1.42 0 2.92 -0.36 2.92 -2.48 c0 -2.22 -1.62 -2.4 -2.58 -2.4 l-4.84 0 z"></path></g>
			</g>
		</svg>
	