<svg data-v-fde0c5aa="" xmlns="http://www.w3.org/2000/svg" viewBox="0 0 300 300" class="iconAbove"><!----><defs data-v-fde0c5aa=""><!----></defs><rect data-v-fde0c5aa="" fill="#F3E6FC" x="0" y="0" width="300px" height="300px" class="logo-background-square"></rect><defs data-v-fde0c5aa=""><!----></defs><g data-v-fde0c5aa="" id="95781f3e-0a9e-4452-a37a-6e5c709ebcc3" fill="#382345" transform="matrix(3.2330266839075934,0,0,3.2330266839075934,20.67893563059907,169.95996311004563)"><path d="M4.56 9.55L4.56 9.55Q4.30 9.90 4.17 10.20L4.17 10.20L4.17 10.20Q4.05 10.50 4.05 10.91L4.05 10.91L4.05 12.89L4.98 12.89L4.98 12.89Q6.20 12.89 6.96 12.32L6.96 12.32L7.20 12.57L7.20 12.57Q6.40 13.80 4.62 13.80L4.62 13.80L4.05 13.80L4.05 16.46L4.05 16.46Q4.05 17.44 3.60 18.14L3.60 18.14L3.60 18.14Q3.16 18.83 2.25 19.40L2.25 19.40L1.96 19.07L1.96 19.07Q2.31 18.69 2.31 17.71L2.31 17.71L2.31 13.80L1.04 13.80L1.74 12.89L2.31 12.89L2.31 11.72L2.31 11.72Q2.31 10.71 3.63 9.55L3.63 9.55L1.71 9.53L1.71 9.53Q0.81 9.53 0.08 10.39L0.08 10.39L-0.21 10.09L-0.21 10.09Q0.43 9.23 1.13 8.72L1.13 8.72L1.13 8.72Q1.82 8.22 2.72 8.22L2.72 8.22L6.06 8.22L6.06 8.22Q6.73 8.22 7.42 8.10L7.42 8.10L7.42 8.10Q8.11 7.98 8.47 7.67L8.47 7.67L8.68 7.92L8.68 7.92Q8.23 8.61 7.45 9.08L7.45 9.08L7.45 9.08Q6.66 9.55 5.73 9.55L5.73 9.55L4.56 9.55ZM10.92 10.93L11.19 11.26L11.19 11.26Q10.26 11.91 9.74 12.75L9.74 12.75L9.74 12.75Q9.21 13.58 9.21 14.70L9.21 14.70L9.21 14.70Q9.21 15.32 9.45 15.95L9.45 15.95L9.45 15.95Q9.69 16.58 10.15 16.99L10.15 16.99L10.15 16.99Q10.61 17.40 11.26 17.40L11.26 17.40L11.26 17.40Q12.07 17.40 12.56 16.81L12.56 16.81L12.56 16.81Q13.06 16.23 13.06 15.36L13.06 15.36L13.06 15.36Q13.06 14.70 12.72 14.02L12.72 14.02L12.72 14.02Q12.38 13.34 11.80 12.87L11.80 12.87L11.80 12.87Q11.23 12.40 10.57 12.35L10.57 12.35L10.57 12.35Q10.86 12.03 11.21 11.76L11.21 11.76L11.21 11.76Q11.55 11.49 12.07 11.12L12.07 11.12L12.07 11.12Q13.08 11.45 13.67 12.36L13.67 12.36L13.67 12.36Q14.27 13.27 14.27 14.36L14.27 14.36L14.27 14.36Q14.27 15.33 13.84 16.24L13.84 16.24L13.84 16.24Q13.41 17.15 12.61 17.72L12.61 17.72L12.61 17.72Q11.80 18.28 10.74 18.28L10.74 18.28L10.74 18.28Q9.86 18.28 9.12 17.87L9.12 17.87L9.12 17.87Q8.39 17.46 7.95 16.74L7.95 16.74L7.95 16.74Q7.52 16.02 7.52 15.15L7.52 15.15L7.52 15.15Q7.52 13.65 8.46 12.52L8.46 12.52L8.46 12.52Q9.41 11.38 10.92 10.93L10.92 10.93ZM18.73 10.93L19.00 11.26L19.00 11.26Q18.07 11.91 17.55 12.75L17.55 12.75L17.55 12.75Q17.02 13.58 17.02 14.70L17.02 14.70L17.02 14.70Q17.02 15.32 17.26 15.95L17.26 15.95L17.26 15.95Q17.50 16.58 17.96 16.99L17.96 16.99L17.96 16.99Q18.42 17.40 19.07 17.40L19.07 17.40L19.07 17.40Q19.88 17.40 20.38 16.81L20.38 16.81L20.38 16.81Q20.87 16.23 20.87 15.36L20.87 15.36L20.87 15.36Q20.87 14.70 20.53 14.02L20.53 14.02L20.53 14.02Q20.19 13.34 19.61 12.87L19.61 12.87L19.61 12.87Q19.04 12.40 18.38 12.35L18.38 12.35L18.38 12.35Q18.68 12.03 19.02 11.76L19.02 11.76L19.02 11.76Q19.36 11.49 19.88 11.12L19.88 11.12L19.88 11.12Q20.89 11.45 21.48 12.36L21.48 12.36L21.48 12.36Q22.08 13.27 22.08 14.36L22.08 14.36L22.08 14.36Q22.08 15.33 21.65 16.24L21.65 16.24L21.65 16.24Q21.22 17.15 20.42 17.72L20.42 17.72L20.42 17.72Q19.61 18.28 18.55 18.28L18.55 18.28L18.55 18.28Q17.67 18.28 16.93 17.87L16.93 17.87L16.93 17.87Q16.20 17.46 15.76 16.74L15.76 16.74L15.76 16.74Q15.33 16.02 15.33 15.15L15.33 15.15L15.33 15.15Q15.33 13.65 16.27 12.52L16.27 12.52L16.27 12.52Q17.22 11.38 18.73 10.93L18.73 10.93ZM29.47 5.15L29.47 16.74L29.47 16.74Q29.47 16.94 29.56 17.09L29.56 17.09L29.56 17.09Q29.65 17.23 29.83 17.23L29.83 17.23L29.83 17.23Q30.02 17.23 30.20 17.08L30.20 17.08L30.20 17.08Q30.39 16.93 30.49 16.74L30.49 16.74L30.80 17.01L30.80 17.01Q30.55 17.50 30.11 17.84L30.11 17.84L30.11 17.84Q29.67 18.19 29.16 18.19L29.16 18.19L29.16 18.19Q28.43 18.19 28.11 17.79L28.11 17.79L28.11 17.79Q27.79 17.39 27.80 16.56L27.80 16.56L27.73 16.56L27.73 16.56Q27.41 17.29 26.89 17.77L26.89 17.77L26.89 17.77Q26.38 18.26 25.65 18.26L25.65 18.26L25.65 18.26Q24.88 18.26 24.33 17.86L24.33 17.86L24.33 17.86Q23.79 17.47 23.51 16.81L23.51 16.81L23.51 16.81Q23.23 16.14 23.23 15.33L23.23 15.33L23.23 15.33Q23.23 14.29 23.65 13.29L23.65 13.29L23.65 13.29Q24.08 12.29 24.89 11.65L24.89 11.65L24.89 11.65Q25.70 11.00 26.78 11.00L26.78 11.00L26.78 11.00Q27.33 11.00 27.78 11.27L27.78 11.27L27.78 5.74L29.47 5.15ZM26.75 11.90L26.75 11.90Q26.08 11.90 25.64 12.36L25.64 12.36L25.64 12.36Q25.20 12.81 24.99 13.48L24.99 13.48L24.99 13.48Q24.78 14.14 24.78 14.78L24.78 14.78L24.78 14.78Q24.78 15.65 25.12 16.44L25.12 16.44L25.12 16.44Q25.47 17.22 26.21 17.22L26.21 17.22L26.21 17.22Q27.10 17.22 27.44 16.30L27.44 16.30L27.44 16.30Q27.78 15.39 27.78 14.31L27.78 14.31L27.78 12.36L27.78 12.36Q27.31 11.90 26.75 11.90L26.75 11.90ZM39.33 7.91L39.33 7.91Q41.13 7.91 42.07 8.90L42.07 8.90L42.07 8.90Q43.01 9.90 43.01 11.62L43.01 11.62L43.01 11.62Q43.01 13.47 41.83 14.95L41.83 14.95L41.83 14.95Q40.66 16.44 38.84 17.30L38.84 17.30L38.84 17.30Q37.03 18.16 35.18 18.27L35.18 18.27L35.18 10.43L36.92 9.86L36.92 17.39L36.92 17.39Q38.16 17.01 39.12 16.21L39.12 16.21L39.12 16.21Q40.07 15.40 40.61 14.28L40.61 14.28L40.61 14.28Q41.15 13.16 41.15 11.84L41.15 11.84L41.15 11.84Q41.15 10.46 40.45 9.63L40.45 9.63L40.45 9.63Q39.76 8.81 38.54 8.81L38.54 8.81L38.54 8.81Q37.58 8.81 36.53 9.26L36.53 9.26L36.53 9.26Q35.49 9.72 34.65 10.43L34.65 10.43L34.30 10.02L34.30 10.02Q35.20 9.14 36.58 8.53L36.58 8.53L36.58 8.53Q37.97 7.91 39.33 7.91L39.33 7.91ZM47.96 10.96L47.96 10.96Q48.78 10.96 49.32 11.38L49.32 11.38L49.32 11.38Q49.87 11.79 49.87 12.57L49.87 12.57L49.87 12.57Q49.87 13.20 49.19 13.98L49.19 13.98L49.19 13.98Q48.51 14.76 47.58 15.42L47.58 15.42L47.58 15.42Q46.65 16.09 45.99 16.38L45.99 16.38L45.99 16.38Q46.58 17.32 47.71 17.32L47.71 17.32L47.71 17.32Q48.34 17.32 48.98 16.96L48.98 16.96L48.98 16.96Q49.62 16.60 50.06 16.02L50.06 16.02L50.34 16.35L50.34 16.35Q49.62 17.26 48.81 17.76L48.81 17.76L48.81 17.76Q48.01 18.26 46.90 18.26L46.90 18.26L46.90 18.26Q46.00 18.26 45.30 17.85L45.30 17.85L45.30 17.85Q44.59 17.44 44.19 16.74L44.19 16.74L44.19 16.74Q43.79 16.03 43.79 15.15L43.79 15.15L43.79 15.15Q43.79 14.08 44.37 13.11L44.37 13.11L44.37 13.11Q44.95 12.14 45.92 11.55L45.92 11.55L45.92 11.55Q46.89 10.96 47.96 10.96L47.96 10.96ZM47.17 11.87L47.17 11.87Q46.63 11.87 46.21 12.26L46.21 12.26L46.21 12.26Q45.79 12.64 45.56 13.24L45.56 13.24L45.56 13.24Q45.32 13.85 45.32 14.49L45.32 14.49L45.32 14.49Q45.32 15.33 45.68 15.93L45.68 15.93L45.68 15.93Q46.20 15.64 46.78 15.11L46.78 15.11L46.78 15.11Q47.36 14.59 47.75 13.99L47.75 13.99L47.75 13.99Q48.15 13.38 48.15 12.89L48.15 12.89L48.15 12.89Q48.15 12.40 47.89 12.14L47.89 12.14L47.89 12.14Q47.63 11.87 47.17 11.87L47.17 11.87ZM53.55 5.14L53.55 16.80L53.55 16.80Q53.55 16.98 53.64 17.12L53.64 17.12L53.64 17.12Q53.73 17.26 53.93 17.26L53.93 17.26L53.93 17.26Q54.12 17.26 54.33 17.11L54.33 17.11L54.33 17.11Q54.53 16.95 54.66 16.77L54.66 16.77L54.91 17.04L54.91 17.04Q54.67 17.51 54.21 17.85L54.21 17.85L54.21 17.85Q53.76 18.19 53.24 18.19L53.24 18.19L53.24 18.19Q51.88 18.19 51.88 16.72L51.88 16.72L51.88 5.74L53.55 5.14ZM57.99 6.31L57.50 9.62L56.62 9.90L56.04 6.97L57.99 6.31ZM57.95 11.09L57.95 16.80L57.95 16.80Q57.95 17.01 58.04 17.14L58.04 17.14L58.04 17.14Q58.14 17.26 58.31 17.26L58.31 17.26L58.31 17.26Q58.66 17.26 59.02 16.77L59.02 16.77L59.28 17.04L59.28 17.04Q58.97 17.60 58.48 17.89L58.48 17.89L58.48 17.89Q58.00 18.19 57.53 18.19L57.53 18.19L57.53 18.19Q56.25 18.19 56.25 16.72L56.25 16.72L56.25 11.68L57.95 11.09ZM63.90 10.96L63.90 10.96Q64.62 10.96 65.28 11.31L65.28 11.31L65.28 11.31Q65.93 11.66 66.25 12.29L66.25 12.29L64.89 12.85L64.89 12.85Q64.68 12.38 64.34 12.12L64.34 12.12L64.34 12.12Q63.99 11.86 63.59 11.86L63.59 11.86L63.59 11.86Q62.99 11.86 62.52 12.31L62.52 12.31L62.52 12.31Q62.06 12.77 61.82 13.44L61.82 13.44L61.82 13.44Q61.57 14.11 61.57 14.76L61.57 14.76L61.57 14.76Q61.57 15.75 61.92 16.48L61.92 16.48L61.92 16.48Q62.27 17.22 63.04 17.22L63.04 17.22L63.04 17.22Q63.92 17.22 64.27 16.30L64.27 16.30L64.27 16.30Q64.61 15.37 64.61 14.31L64.61 14.31L64.61 13.69L66.26 13.10L66.26 17.40L66.26 17.40Q66.26 18.48 65.70 19.61L65.70 19.61L65.70 19.61Q65.14 20.73 64.19 21.47L64.19 21.47L64.19 21.47Q63.24 22.20 62.13 22.20L62.13 22.20L62.13 22.20Q61.35 22.20 60.84 21.69L60.84 21.69L62.03 20.55L62.03 20.55Q62.48 21.14 63.08 21.14L63.08 21.14L63.08 21.14Q64.02 21.14 64.32 20.43L64.32 20.43L64.32 20.43Q64.62 19.73 64.62 18.56L64.62 18.56L64.61 17.58L64.61 17.58Q64.61 16.95 64.72 16.56L64.72 16.56L64.61 16.56L64.61 16.56Q64.20 17.32 63.70 17.79L63.70 17.79L63.70 17.79Q63.20 18.26 62.48 18.26L62.48 18.26L62.48 18.26Q61.33 18.26 60.70 17.46L60.70 17.46L60.70 17.46Q60.07 16.66 60.07 15.44L60.07 15.44L60.07 15.44Q60.07 14.29 60.56 13.26L60.56 13.26L60.56 13.26Q61.04 12.22 61.91 11.59L61.91 11.59L61.91 11.59Q62.79 10.96 63.90 10.96L63.90 10.96ZM70.08 5.15L70.08 14.62L70.14 14.62L70.14 14.62Q70.45 13.26 71.15 12.11L71.15 12.11L71.15 12.11Q71.85 10.96 72.87 10.96L72.87 10.96L72.87 10.96Q73.35 10.96 73.58 11.26L73.58 11.26L73.58 11.26Q73.81 11.55 73.86 11.95L73.86 11.95L73.86 11.95Q73.92 12.35 73.92 12.92L73.92 12.92L73.92 16.80L73.92 16.80Q73.92 16.97 74.02 17.12L74.02 17.12L74.02 17.12Q74.13 17.26 74.33 17.26L74.33 17.26L74.33 17.26Q74.66 17.26 75.03 16.77L75.03 16.77L75.26 17.04L75.26 17.04Q75.03 17.51 74.58 17.85L74.58 17.85L74.58 17.85Q74.13 18.19 73.60 18.19L73.60 18.19L73.60 18.19Q72.27 18.19 72.27 16.72L72.27 16.72L72.27 13.05L72.27 13.05Q72.27 12.87 72.20 12.72L72.20 12.72L72.20 12.72Q72.14 12.57 71.99 12.57L71.99 12.57L71.99 12.57Q71.40 12.57 70.97 13.55L70.97 13.55L70.97 13.55Q70.55 14.53 70.31 15.82L70.31 15.82L70.31 15.82Q70.08 17.11 70.08 17.91L70.08 17.91L68.40 18.27L68.40 5.74L70.08 5.15ZM79.79 12.01L78.37 12.01L78.37 16.80L78.37 16.80Q78.37 17.00 78.48 17.13L78.48 17.13L78.48 17.13Q78.60 17.26 78.78 17.26L78.78 17.26L78.78 17.26Q79.11 17.26 79.53 16.77L79.53 16.77L79.79 17.04L79.79 17.04Q79.53 17.54 79.16 17.79L79.16 17.79L79.16 17.79Q78.78 18.05 78.43 18.13L78.43 18.13L78.43 18.13Q78.08 18.21 78.08 18.19L78.08 18.19L78.08 18.19Q76.68 18.19 76.68 16.72L76.68 16.72L76.68 12.01L75.68 12.01L76.12 11.09L76.68 11.09L76.68 7.91L78.37 7.34L78.37 11.09L80.21 11.09L79.79 12.01ZM78.08 18.19L78.08 18.19Z"></path></g><defs data-v-fde0c5aa=""><linearGradient data-v-fde0c5aa="" gradientTransform="rotate(25)" id="b3384293-5c43-482e-b578-046cf8e22b2e" x1="0%" y1="0%" x2="100%" y2="0%"><stop data-v-fde0c5aa="" offset="0%" stop-color="#8D2CE3" stop-opacity="1"></stop><stop data-v-fde0c5aa="" offset="100%" stop-color="#F7C6F6" stop-opacity="1"></stop></linearGradient></defs><g data-v-fde0c5aa="" id="c992f708-7f59-48fb-969a-331eb48f6616" stroke="none" fill="url(#b3384293-5c43-482e-b578-046cf8e22b2e)" transform="matrix(1.4488569085035505,0,0,1.4488569085035505,77.5570108741098,38.18061464920692)"><defs><style>.fil0{fill:#000}</style></defs><path class="fil0" d="M78.511 18.098c3.303 0 6.013 3.049 6.013 6.775 0 3.726-2.71 6.775-6.013 6.775s-6.013-3.049-6.013-6.775c0-3.726 2.71-6.775 6.013-6.775zM80.036 42.404c-1.61 0-2.964 1.355-2.964 2.964 0 1.61 1.355 2.964 2.964 2.964V42.32z"></path><path class="fil0" d="M86.133 33.088c1.017 0 2.033.508 2.541 1.44l5.76 9.146c1.354 2.202.168 4.828-2.372 4.828h-2.033v-7.03h-9.993a3.976 3.976 0 0 0-3.98 3.98 3.976 3.976 0 0 0 3.98 3.981v9.994h7.368v6.606h-.593v21.003c0 1.609-1.355 2.964-2.964 2.964h-1.779c-1.609 0-2.964-1.355-2.964-2.964V66.033h-1.186v21.003c0 1.609-1.355 2.964-2.964 2.964h-1.778c-1.61 0-2.964-1.355-2.964-2.964V66.033h-.593v-26l-7.453 2.032c-1.016.254-2.117 0-2.88-.762-2.879-2.795-5.674-5.674-8.553-8.554a2.965 2.965 0 0 1 0-4.234 2.965 2.965 0 0 1 4.234 0l7.284 7.283 9.909-2.625c.254-.085.508-.085.846-.085h13.212z"></path><path d="M44.55 25.127H64.2c.375 0 .677.283.677.635 0 .352-.302.636-.677.636H44.55c-.375 0-.677-.284-.677-.636 0-.352.302-.635.677-.635z"></path><path class="fil0" d="M54.375 16.15c4.996 0 8.977 3.472 8.977 7.707H45.397c0-4.235 4.065-7.707 8.978-7.707z"></path><path d="M55.137 14.626a.762.762 0 1 1-1.525 0 .762.762 0 0 1 1.525 0zM57.423 61.29l2.541 24.984H5L7.54 61.29zM11.267 87.46h4.997v2.455h-4.997zM48.7 87.46h4.997v2.455H48.7z"></path><path class="fil0" d="M33.202 46.554l.762-1.525h-3.049l.762 1.525-.423 5.843-1.863-7.283c-3.303 0-6.013 2.71-6.013 6.013v8.977h17.954v-8.977c0-3.303-2.71-6.013-6.013-6.013l-1.863 7.283-.423-5.843zM32.44 30.04c3.303 0 6.013 3.048 6.013 6.774 0 3.727-2.71 6.776-6.013 6.776s-6.013-3.05-6.013-6.776 2.71-6.775 6.013-6.775zM16.518 49.603c-1.355 2.286-.424 6.013 2.117 6.351v2.456c0 1.101-2.032 1.186-2.032 1.61h4.827c0-.424-2.033-.424-2.033-1.61v-2.456c2.541-.338 3.557-4.065 2.118-6.351h-5.082zm.254.423h4.658c.254.508.423 1.186.423 1.779.085 1.693-.847 3.81-2.794 3.81-.424 0-.932-.084-1.27-.338-1.102-.678-1.525-2.202-1.525-3.472 0-.593.17-1.186.423-1.779z"></path><path class="fil0" d="M21.43 51.635v.17c.085 1.44-.678 3.387-2.371 3.387-.424 0-.763-.085-1.101-.339-.932-.592-1.355-2.032-1.27-3.133v-.085c1.693 1.27 2.963-.678 4.742-.085zM13.3 42.827h-2.033a.182.182 0 0 1-.17-.169v-1.61c0-.084.085-.168.17-.168H13.3c.084 0 .169.084.169.169v1.61c0 .084-.085.168-.17.168z"></path><path d="M9.489 50.873v3.98h3.98v-3.98z"></path><path class="fil0" d="M11.267 45.792c-1.016.423-1.778 1.44-1.778 2.625v2.033h4.403v4.827H9.49v3.98a.76.76 0 0 0 .762.763h3.98a.76.76 0 0 0 .762-.763V48.502c0-1.186-.762-2.202-1.778-2.626v-2.54h-2.033v2.54z"></path><path d="M89.098 42.404V58.41h-8.046V42.404z"></path></g><!----></svg>